<svg xmlns="http://www.w3.org/2000/svg" width="17.847" height="17.431" viewBox="0 0 17.847 17.431"><defs><style>.a{fill:#904c9c;}</style></defs><g transform="translate(0 -0.027)"><g transform="translate(0 0.027)"><g transform="translate(0 0)"><path class="a" d="M17.846,3.353a2.037,2.037,0,0,0-2.183-2.294,5.008,5.008,0,0,0-1.4.224c.034-.6.034-.978.034-1V.027H3.544V.286c0,.009,0,.388.035,1a5.008,5.008,0,0,0-1.4-.225A2.037,2.037,0,0,0,0,3.353,6.979,6.979,0,0,0,1.01,7.2,6.312,6.312,0,0,0,3.153,9.29a5.1,5.1,0,0,0,2.58.689c.158,0,.311-.007.453-.022l.027,0a4.069,4.069,0,0,0,1,.782,1.021,1.021,0,0,1,.51.68.847.847,0,0,0,.024,1.636v1.086H6.316v1.134H4.9v2.185h8.044V15.273H11.53V14.139H10.1V13.053a.847.847,0,0,0,.024-1.636,1.021,1.021,0,0,1,.51-.68,4.087,4.087,0,0,0,1-.782,4.492,4.492,0,0,0,.48.025h0a5.1,5.1,0,0,0,2.579-.689A6.313,6.313,0,0,0,16.835,7.2,6.978,6.978,0,0,0,17.846,3.353ZM13.768.545c0,.095-.006.214-.012.353H4.091C4.085.758,4.081.639,4.079.545Zm.36,2.377a4.263,4.263,0,0,1,1.241-.234.967.967,0,0,1,.748.248,1.161,1.161,0,0,1,.162.944A5.448,5.448,0,0,1,14,7.885a2.924,2.924,0,0,1-1.259.413A17.368,17.368,0,0,0,14.128,2.922ZM3.99,4.725A14.61,14.61,0,0,0,5.06,8.211L5.1,8.3a2.924,2.924,0,0,1-1.258-.413A5.448,5.448,0,0,1,1.566,3.879a1.161,1.161,0,0,1,.162-.944.967.967,0,0,1,.748-.248,4.265,4.265,0,0,1,1.242.235C3.783,3.483,3.87,4.1,3.99,4.725ZM5.733,9.461a4.565,4.565,0,0,1-2.306-.615A6.016,6.016,0,0,1,.53,3.359c.014-1.2.555-1.783,1.653-1.783a4.687,4.687,0,0,1,1.432.264c.013.174.028.348.044.521a4.447,4.447,0,0,0-1.183-.192,1.466,1.466,0,0,0-1.148.425A1.624,1.624,0,0,0,1.041,3.95a7.175,7.175,0,0,0,.886,2.665,4.951,4.951,0,0,0,1.63,1.705,3.588,3.588,0,0,0,1.829.513l.005.008q.041.07.082.137l.026.042c.026.042.053.084.08.125l.031.046.055.082.054.077.053.074.025.035Zm6.682,6.329V16.94H5.431V15.791h6.984ZM10.1,14.657H11v.616H6.846v-.616H10.1ZM8.28,14.139V13.084H9.566v1.055ZM10.2,12.231a.34.34,0,0,1-.343.335H7.985a.335.335,0,1,1,0-.67H9.861A.34.34,0,0,1,10.2,12.231Zm1.326-2.96-.009.011-.079.1-.019.023q-.044.052-.088.1l0,0a3.63,3.63,0,0,1-.959.775,1.541,1.541,0,0,0-.784,1.094H8.258a1.541,1.541,0,0,0-.784-1.094,3.577,3.577,0,0,1-.894-.7l-.065-.072a5.786,5.786,0,0,1-.738-1.057l-.069-.125A18.739,18.739,0,0,1,4.119,1.415h9.61c0,.072-.009.146-.015.223v.011q-.009.125-.019.251v.007c-.021.266-.046.532-.075.8l-.017.159a16.206,16.206,0,0,1-1.457,5.453l-.076.136A6.177,6.177,0,0,1,11.53,9.272Zm2.889-.426a4.564,4.564,0,0,1-2.306.615h-.065q.052-.07.1-.141l.012-.018q.042-.061.083-.123l.021-.032c.03-.047.06-.094.09-.141l.014-.023.072-.119.017-.028a3.588,3.588,0,0,0,1.829-.513,4.952,4.952,0,0,0,1.63-1.705A7.176,7.176,0,0,0,16.8,3.95a1.624,1.624,0,0,0-.287-1.355A1.466,1.466,0,0,0,15.37,2.17a4.446,4.446,0,0,0-1.183.192c.017-.177.031-.347.043-.508V1.84a4.687,4.687,0,0,1,1.432-.264c1.1,0,1.638.583,1.653,1.783A6.016,6.016,0,0,1,14.419,8.846Z" transform="translate(0 -0.027)"/></g></g><g transform="translate(6.262 8.41)"><path class="a" d="M180.1,246.237l-.443.285a4.625,4.625,0,0,0,.483.605l.388-.353A4.106,4.106,0,0,1,180.1,246.237Z" transform="translate(-179.656 -246.237)"/></g><g transform="translate(5.05 5.539)"><path class="a" d="M145.407,161.922l-.517.115a9.94,9.94,0,0,0,1.009,2.715l.461-.256A9.44,9.44,0,0,1,145.407,161.922Z" transform="translate(-144.89 -161.922)"/></g><g transform="translate(14.039 10.427)"><path class="a" d="M404.2,306.428v-.518h-.447v-.437h-.53v.437h-.447v.518h.447v.437h.53v-.437Z" transform="translate(-402.774 -305.473)"/></g><g transform="translate(2.649 13.186)"><path class="a" d="M77.3,387.39v-.518h-.375v-.367h-.53v.367h-.376v.518h.375v.367h.53v-.367Z" transform="translate(-76.016 -386.506)"/></g><g transform="translate(1.702 9.837)"><rect class="a" width="0.5" height="0.518"/></g><g transform="translate(4.916 11.369)"><rect class="a" width="0.5" height="0.518"/></g><g transform="translate(12.975 12.927)"><rect class="a" width="0.5" height="0.518"/></g></g></svg>