<svg xmlns="http://www.w3.org/2000/svg" width="11.846" height="17.285" viewBox="0 0 11.846 17.285"><defs><style>.a{fill:#92499a;}</style></defs><g transform="translate(-100)"><path class="a" d="M198.278,392a2.04,2.04,0,1,0,2.278,2.026A2.166,2.166,0,0,0,198.278,392Zm0,3.038a1.02,1.02,0,1,1,1.139-1.013A1.083,1.083,0,0,1,198.278,395.038Z" transform="translate(-92.355 -378.766)"/><path class="a" d="M105.923,0C102.657,0,100,2.363,100,5.267v.506h4.556V5.267a1.376,1.376,0,0,1,2.734,0,1.166,1.166,0,0,1-.484.927l-3.161,2.39v3.637H108.2V10.457l1.556-1.176a5.042,5.042,0,0,0,2.089-4.014C111.846,2.363,109.189,0,105.923,0Zm3.1,8.509-1.957,1.479v1.22h-2.278V9.052l2.76-2.086a2.135,2.135,0,0,0,.885-1.7,2.382,2.382,0,0,0-2.506-2.228,2.467,2.467,0,0,0-2.441,1.722h-2.31a4.63,4.63,0,0,1,4.75-3.747,4.548,4.548,0,0,1,4.784,4.254A4.073,4.073,0,0,1,109.019,8.509Z" transform="translate(0)"/></g></svg>